<?xml version="1.0" standalone="no"?><!DOCTYPE svg PUBLIC "-//W3C//DTD SVG 1.1//EN" "http://www.w3.org/Graphics/SVG/1.1/DTD/svg11.dtd"><svg t="1606375775518" class="icon" viewBox="0 0 1365 1024" version="1.1" xmlns="http://www.w3.org/2000/svg" p-id="11770" xmlns:xlink="http://www.w3.org/1999/xlink" width="266.6015625" height="200"><defs><style type="text/css"></style></defs><path d="M756.736 479.232l34.64704-47.78496c0-14.592-214.18496-118.61504-250.88 110.24896a345.00096 345.00096 0 0 0-68.26496 5.12c62.208-315.98592 354.816-203.776 364.03712-153.76896 19.36896-14.50496 52.89984-43.68896 52.89984-43.68896v129.96096h-132.352l-0.08704-0.08704z m-173.39904 188.24704c0 15.61088 214.18496 123.72992 250.88-115.46112 29.52704 0 45.81888 4.17792 69.28896 1.024-61.184 315.136-352.768 208.04608-361.984 159.14496-19.36896 14.51008-49.92 43.68896-49.92 43.68896v-131.072h126.464c0.00512 0.00512-20.47488 22.87616-34.72896 42.6752z m464.896 227.57888c124.416 0 226.13504-103.24992 226.13504-229.02784-1.71008-75.26912-34.22208-141.23008-91.82208-185.43104a212.10112 212.10112 0 0 0-106.92096-44.88704l-65.62304-8.10496-12.544-64.85504a335.85152 335.85152 0 0 0-185.088-240.04096 280.96512 280.96512 0 0 0-130.72896-31.744c-46.592 0-92.75904 11.43296-136.87296 34.90304-92.16 43.94496-159.91296 133.28896-179.2 236.37504l-12.20096 65.024L287.744 435.79904a222.73024 222.73024 0 0 0-107.86304 45.39904 228.36736 228.36736 0 0 0-88.91904 182.69696c0 126.46912 99.84 228.70016 223.40096 230.14912l79.36 0.84992h654.50496v0.16384zM0 663.88992C0 563.456 44.544 471.63904 123.904 409.6a314.15296 314.15296 0 0 1 152.23296-64.16896c24.49408-130.816 110.42304-244.736 229.54496-301.65504A375.38304 375.38304 0 0 1 681.72288 0c61.61408 0 122.45504 15.19104 173.568 42.496 120.74496 57.6 206.08 171.52 231.51104 302.93504a302.93504 302.93504 0 0 1 152.74496 64.08704c78.41792 60.32896 123.47904 152.32 125.77792 254.464 0 177.65888-141.98784 322.12992-317.09696 322.12992H313.43104v-0.94208C139.60704 983.04 0 839.936 0 663.88992z" p-id="11771"></path></svg>