<?xml version="1.0" standalone="no"?><!DOCTYPE svg PUBLIC "-//W3C//DTD SVG 1.1//EN" "http://www.w3.org/Graphics/SVG/1.1/DTD/svg11.dtd"><svg t="1611890923337" class="icon" viewBox="0 0 1024 1024" version="1.1" xmlns="http://www.w3.org/2000/svg" p-id="17493" xmlns:xlink="http://www.w3.org/1999/xlink" width="200" height="200"><defs><style type="text/css"></style></defs><path d="M64 416v192h192v-192H64zM704 960H512c-38.4 0-64-25.6-64-64V544H320v64c0 38.4-25.6 64-64 64H64c-38.4 0-64-25.6-64-64v-192c0-38.4 25.6-64 64-64h192c38.4 0 64 25.6 64 64v64h128V128c0-38.4 25.6-64 64-64h192c0-38.4 25.6-64 64-64h128c38.4 0 64 25.6 64 64v128c0 38.4-25.6 64-64 64h-128c-38.4 0-64-25.6-64-64V128H512v352h192V448c0-38.4 25.6-64 64-64h128c38.4 0 64 25.6 64 64v128c0 38.4-25.6 64-64 64h-128c-38.4 0-64-25.6-64-64v-32H512V896h192v-64c0-38.4 25.6-64 64-64h128c38.4 0 64 25.6 64 64v128c0 38.4-25.6 64-64 64h-128c-38.4 0-64-25.6-64-64z m64-896v128h128V64h-128z m0 384v128h128V448h-128z m0 384v128h128v-128h-128z" p-id="17494"></path></svg>