<?xml version="1.0" standalone="no"?><!DOCTYPE svg PUBLIC "-//W3C//DTD SVG 1.1//EN" "http://www.w3.org/Graphics/SVG/1.1/DTD/svg11.dtd"><svg t="1611891430479" class="icon" viewBox="0 0 1024 1024" version="1.1" xmlns="http://www.w3.org/2000/svg" p-id="26164" xmlns:xlink="http://www.w3.org/1999/xlink" width="200" height="200"><defs><style type="text/css"></style></defs><path d="M512 0a512 512 0 1 1 0 1024 512 512 0 0 1 0-1024z m0 72.282353a439.717647 439.717647 0 1 0 0 879.435294 439.717647 439.717647 0 0 0 0-879.435294z m119.868235 223.352471a66.258824 66.258824 0 0 1 93.726118 77.281882l-2.409412 6.866823-94.32847 231.30353a66.258824 66.258824 0 0 1-33.490824 35.056941l-202.571294 93.967059a66.258824 66.258824 0 0 1-89.449412-84.630588l87.220706-218.714353a66.258824 66.258824 0 0 1 31.563294-34.575059z m18.371765 71.68L456.824471 465.618824l-80.715295 202.511058 186.669177-86.558117L650.24 367.435294z" p-id="26165"></path></svg>