<?xml version="1.0" standalone="no"?><!DOCTYPE svg PUBLIC "-//W3C//DTD SVG 1.1//EN" "http://www.w3.org/Graphics/SVG/1.1/DTD/svg11.dtd"><svg t="1605088556970" class="icon" viewBox="0 0 1024 1024" version="1.1" xmlns="http://www.w3.org/2000/svg" p-id="14290" data-spm-anchor-id="a313x.7781069.0.i1" xmlns:xlink="http://www.w3.org/1999/xlink" width="200" height="200"><defs><style type="text/css"></style></defs><path d="M389.1712 729.28256c-51.41504 0-93.25568-41.8304-93.25568-93.24544s41.8304-93.25568 93.25568-93.25568 93.25568 41.84064 93.25568 93.25568-41.84064 93.24544-93.25568 93.24544z m0-166.03136c-40.13056 0-72.77568 32.64512-72.77568 72.77568s32.64512 72.76544 72.77568 72.76544 72.77568-32.64512 72.77568-72.76544-32.64512-72.77568-72.77568-72.77568z" fill="#231F20" p-id="14291"></path><path d="M389.16096 870.41024c-10.63936 0-21.26848-0.75776-32.26624-2.28352a10.25024 10.25024 0 0 1-8.7552-8.8064l-7.05536-53.8624a175.13472 175.13472 0 0 1-37.59104-15.57504l-43.12064 33.13664a10.28096 10.28096 0 0 1-12.41088 0.0512 238.7968 238.7968 0 0 1-45.76256-45.75232 10.24 10.24 0 0 1 0.04096-12.42112l33.1264-43.10016a174.82752 174.82752 0 0 1-15.60576-37.632l-53.87264-7.05536a10.24 10.24 0 0 1-8.81664-8.74496 235.95008 235.95008 0 0 1 0-64.68608 10.24 10.24 0 0 1 8.81664-8.74496l53.87264-7.04512a175.3088 175.3088 0 0 1 15.60576-37.64224l-33.1264-43.10016a10.24 10.24 0 0 1-0.04096-12.42112 238.7456 238.7456 0 0 1 45.76256-45.74208 10.21952 10.21952 0 0 1 12.41088 0.0512l43.1104 33.13664a174.57152 174.57152 0 0 1 37.60128-15.57504l7.05536-53.8624c0.60416-4.57728 4.18816-8.18176 8.7552-8.81664a229.888 229.888 0 0 1 64.7168 0.02048c4.56704 0.63488 8.1408 4.2496 8.74496 8.81664l7.04512 53.89312c13.056 3.71712 25.63072 8.92928 37.51936 15.57504l43.10016-33.1264a10.24 10.24 0 0 1 12.42112-0.04096 236.07296 236.07296 0 0 1 45.76256 45.78304 10.24 10.24 0 0 1-0.0512 12.41088l-33.1264 43.12064a176.10752 176.10752 0 0 1 15.54432 37.4784l53.87264 7.05536a10.24 10.24 0 0 1 8.8064 8.74496 229.2736 229.2736 0 0 1 0 64.73728 10.24 10.24 0 0 1-8.8064 8.74496l-53.87264 7.05536a174.5408 174.5408 0 0 1-15.54432 37.4784l33.1264 43.12064a10.24 10.24 0 0 1 0.0512 12.41088 235.56096 235.56096 0 0 1-45.76256 45.79328 10.24 10.24 0 0 1-12.42112-0.04096l-43.10016-33.1264a174.78656 174.78656 0 0 1-37.51936 15.57504l-7.04512 53.89312a10.24 10.24 0 0 1-8.74496 8.8064 231.6288 231.6288 0 0 1-32.45056 2.31424z m-21.73952-21.62688c14.72512 1.54624 28.89728 1.51552 43.66336-0.01024l6.912-52.8384a10.24 10.24 0 0 1 7.75168-8.62208 154.624 154.624 0 0 0 44.60544-18.5344 10.26048 10.26048 0 0 1 11.59168 0.6144l42.26048 32.48128a215.8592 215.8592 0 0 0 30.88384-30.89408l-32.49152-42.28096a10.26048 10.26048 0 0 1-0.6144-11.59168 154.3168 154.3168 0 0 0 18.47296-44.57472c1.00352-4.11648 4.43392-7.19872 8.63232-7.75168l52.81792-6.92224c1.536-14.7456 1.536-28.93824 0-43.70432l-52.81792-6.92224a10.26048 10.26048 0 0 1-8.63232-7.75168 154.48064 154.48064 0 0 0-18.47296-44.57472 10.24 10.24 0 0 1 0.6144-11.59168l32.49152-42.27072a214.81472 214.81472 0 0 0-30.88384-30.89408l-42.26048 32.48128a10.26048 10.26048 0 0 1-11.59168 0.6144 154.32704 154.32704 0 0 0-44.60544-18.51392 10.24 10.24 0 0 1-7.75168-8.62208l-6.912-52.84864a207.44192 207.44192 0 0 0-43.66336-0.01024l-6.912 52.81792a10.21952 10.21952 0 0 1-7.76192 8.62208 154.7264 154.7264 0 0 0-44.67712 18.51392 10.21952 10.21952 0 0 1-11.59168-0.6144l-42.27072-32.48128a218.7776 218.7776 0 0 0-30.8736 30.86336l32.47104 42.25024c2.58048 3.36896 2.82624 7.97696 0.6144 11.60192a154.25536 154.25536 0 0 0-18.55488 44.70784 10.24 10.24 0 0 1-8.63232 7.75168l-52.80768 6.90176a215.94112 215.94112 0 0 0 0 43.65312l52.80768 6.92224a10.20928 10.20928 0 0 1 8.62208 7.75168c3.79904 15.7696 10.0352 30.8224 18.55488 44.71808a10.21952 10.21952 0 0 1-0.6144 11.59168L223.3344 771.072a218.78784 218.78784 0 0 0 30.8736 30.86336l42.27072-32.49152a10.24 10.24 0 0 1 11.58144-0.6144 154.9824 154.9824 0 0 0 44.67712 18.51392 10.24 10.24 0 0 1 7.76192 8.63232l6.92224 52.80768zM702.12608 384.64512c-8.07936 0-16.29184-1.536-24.2176-4.78208a63.72352 63.72352 0 0 1-34.8672-34.58048 63.81568 63.81568 0 0 1-0.2048-49.1008 63.744 63.744 0 0 1 34.58048-34.87744 63.73376 63.73376 0 0 1 49.12128-0.2048 64.256 64.256 0 0 1 35.072 83.69152 64.3072 64.3072 0 0 1-59.48416 39.85408z m0.09216-107.86816c-5.72416 0-11.43808 1.13664-16.87552 3.42016a43.38688 43.38688 0 0 0-23.54176 23.74656c-4.43392 10.79296-4.38272 22.66112 0.13312 33.42336s12.94336 19.11808 23.73632 23.54176a43.7248 43.7248 0 0 0 56.97536-23.87968 43.7248 43.7248 0 0 0-40.42752-60.25216z m49.90976 64.14336h0.1024-0.1024z" fill="#231F20" p-id="14292"></path><path d="M662.23104 487.46496c-0.83968 0-1.69984-0.1024-2.53952-0.31744a168.8576 168.8576 0 0 1-43.96032-17.9712 10.24 10.24 0 0 1-4.7616-11.47904l9.55392-36.10624a129.08544 129.08544 0 0 1-18.65728-18.51392l-36.06528 9.85088a10.24 10.24 0 0 1-11.50976-4.6592 175.3088 175.3088 0 0 1-18.37056-43.79648 10.24 10.24 0 0 1 4.75136-11.47904l32.3072-18.7904a129.36192 129.36192 0 0 1-0.13312-26.33728l-32.44032-18.51392a10.26048 10.26048 0 0 1-4.84352-11.44832 173.7728 173.7728 0 0 1 18.00192-43.93984 10.22976 10.22976 0 0 1 11.4688-4.75136l36.11648 9.55392a127.96928 127.96928 0 0 1 18.55488-18.67776l-9.86112-36.05504a10.24 10.24 0 0 1 4.6592-11.50976 175.7184 175.7184 0 0 1 43.79648-18.35008 10.21952 10.21952 0 0 1 11.47904 4.74112l18.80064 32.31744a129.0752 129.0752 0 0 1 26.30656-0.11264l18.52416-32.43008a10.1888 10.1888 0 0 1 11.43808-4.83328c15.86176 4.07552 29.81888 9.80992 43.93984 18.00192a10.24 10.24 0 0 1 4.7616 11.47904l-9.55392 36.12672a129.25952 129.25952 0 0 1 18.61632 18.50368l36.05504-9.85088a10.21952 10.21952 0 0 1 11.50976 4.66944 172.544 172.544 0 0 1 18.35008 43.81696 10.24 10.24 0 0 1-4.75136 11.4688l-32.31744 18.80064c0.93184 8.73472 0.9728 17.50016 0.12288 26.2144l32.44032 18.51392a10.24 10.24 0 0 1 4.84352 11.43808 170.96704 170.96704 0 0 1-18.01216 43.97056 10.24 10.24 0 0 1-11.4688 4.75136l-36.10624-9.55392a128.08192 128.08192 0 0 1-18.49344 18.60608l9.85088 36.05504a10.24 10.24 0 0 1-4.6592 11.50976 172.24704 172.24704 0 0 1-43.79648 18.37056 10.20928 10.20928 0 0 1-11.47904-4.74112l-18.7904-32.3072c-8.74496 0.94208-17.52064 0.9728-26.25536 0.13312l-18.5344 32.45056a10.21952 10.21952 0 0 1-8.88832 5.18144z m-29.40928-32.27648c7.92576 4.10624 15.93344 7.38304 24.48384 10.01472l17.95072-31.42656a10.21952 10.21952 0 0 1 10.4448-5.04832c11.24352 1.71008 22.69184 1.65888 33.98656-0.17408a10.1888 10.1888 0 0 1 10.48576 4.95616l18.19648 31.2832c8.41728-2.69312 16.5888-6.12352 24.40192-10.22976l-9.54368-34.93888c-1.11616-4.096 0.4096-8.45824 3.82976-10.96704a108.00128 108.00128 0 0 0 23.92064-24.07424 10.25024 10.25024 0 0 1 10.92608-3.91168l34.99008 9.24672c4.10624-7.92576 7.39328-15.94368 10.02496-24.50432l-31.42656-17.93024a10.24 10.24 0 0 1-5.03808-10.45504 108.70784 108.70784 0 0 0-0.1536-33.93536 10.26048 10.26048 0 0 1 4.95616-10.48576l31.30368-18.21696a154.09152 154.09152 0 0 0-10.21952-24.41216l-34.92864 9.54368a10.26048 10.26048 0 0 1-10.9568-3.82976 108.66688 108.66688 0 0 0-24.10496-23.94112 10.26048 10.26048 0 0 1-3.91168-10.92608l9.25696-34.99008a146.11456 146.11456 0 0 0-24.49408-10.02496l-17.94048 31.41632a10.21952 10.21952 0 0 1-10.45504 5.03808 107.9296 107.9296 0 0 0-34.00704 0.14336 10.2912 10.2912 0 0 1-10.48576-4.95616l-18.20672-31.29344c-8.36608 2.69312-16.61952 6.15424-24.40192 10.21952l9.55392 34.90816c1.11616 4.096-0.4096 8.45824-3.82976 10.96704a108.9536 108.9536 0 0 0-24.00256 24.15616 10.19904 10.19904 0 0 1-10.91584 3.90144l-34.9696-9.24672a152.0128 152.0128 0 0 0-10.02496 24.4736l31.40608 17.92a10.24 10.24 0 0 1 5.03808 10.4448 108.544 108.544 0 0 0 0.17408 34.05824 10.24 10.24 0 0 1-4.95616 10.496l-31.29344 18.19648c2.70336 8.37632 6.16448 16.62976 10.22976 24.39168l34.92864-9.54368c4.12672-1.09568 8.43776 0.4096 10.94656 3.81952a109.1072 109.1072 0 0 0 24.14592 23.95136 10.24 10.24 0 0 1 3.92192 10.92608l-9.23648 34.99008z" fill="#231F20" p-id="14293"></path></svg>