<?xml version="1.0" standalone="no"?><!DOCTYPE svg PUBLIC "-//W3C//DTD SVG 1.1//EN" "http://www.w3.org/Graphics/SVG/1.1/DTD/svg11.dtd"><svg t="1611891003961" class="icon" viewBox="0 0 1025 1024" version="1.1" xmlns="http://www.w3.org/2000/svg" p-id="20618" xmlns:xlink="http://www.w3.org/1999/xlink" width="200.1953125" height="200"><defs><style type="text/css"></style></defs><path d="M549.789873 349.575852H213.674586c-19.742162 0-35.795131-16.152678-35.795131-35.795131 0-19.742162 16.152678-35.795131 35.795131-35.795132h336.115287c19.742162 0 35.795131 16.152678 35.795132 35.795132s-16.05297 35.795131-35.795132 35.795131zM549.789873 547.496008H213.674586c-19.742162 0-35.795131-16.152678-35.795131-35.795132 0-19.742162 16.152678-35.795131 35.795131-35.795131h336.115287c19.742162 0 35.795131 16.152678 35.795132 35.795131 0 19.742162-16.05297 35.795131-35.795132 35.795132zM549.789873 745.515871H213.674586c-19.742162 0-35.795131-16.152678-35.795131-35.795131 0-19.742162 16.152678-35.795131 35.795131-35.795131h336.115287c19.742162 0 35.795131 16.152678 35.795132 35.795131 0 19.742162-16.05297 35.795131-35.795132 35.795131zM969.360662 914.421032c17.249464-28.017916 27.220253-60.921519 27.220253-96.218111 0-101.402921-82.159299-183.56222-183.56222-183.56222s-183.56222 82.159299-183.56222 183.56222c0 101.402921 82.159299 183.56222 183.56222 183.56222 37.191042 0 71.789679-11.067575 100.704966-30.111782l40.680818 40.680818c7.777215 7.777215 17.94742 11.665823 28.217332 11.665823 10.170204 0 20.440117-3.888608 28.217332-11.665823 15.55443-15.55443 15.55443-40.780526 0-56.434664L969.360662 914.421032z m-156.242259 7.478092c-57.232327 0-103.79591-46.563583-103.79591-103.795911 0-57.232327 46.563583-103.79591 103.79591-103.79591s103.79591 46.563583 103.795911 103.79591c-0.099708 57.232327-46.663291 103.79591-103.795911 103.795911z" p-id="20619"></path><path d="M655.081402 976.140214c-10.070497-10.070497-19.044206-20.938656-26.921129-32.405063H204.202337c-67.601947 0-122.540993-52.84518-122.540993-117.854723V197.521324C81.661344 132.61149 136.600389 79.76631 204.202337 79.76631h490.064265C761.868549 79.76631 816.807595 132.61149 816.807595 197.521324v122.24187c-73.085881 16.950341-127.626095 80.464265-127.626095 155.843427 0 21.736319 18.246543 39.284907 40.880233 39.284908 22.533982 0 40.880234-17.548588 40.880234-39.284908 0-45.167673 38.188121-81.860175 85.050828-81.860175s85.050828 36.692502 85.050827 81.860175c0 21.736319 18.246543 39.284907 40.880234 39.284908 22.533982 0 40.880234-17.548588 40.880234-39.284908 0-74.282376-52.84518-136.898929-124.236028-155.045764V197.521324C898.568062 89.338267 806.936514 1.196495 694.36631 1.196495H204.202337C91.632132 1.196495 0.000584 89.338267 0.000584 197.521324v628.359104c0 108.282765 91.631548 196.32483 204.201753 196.32483h490.064265c8.275755 0 16.451801-0.498539 24.428432-1.39591-23.331646-10.86816-44.868549-25.924051-63.613632-44.669134z" p-id="20620"></path><path d="M927.283934 514.991237c0-37.888997-31.906524-68.599026-71.291139-68.599027s-71.291139 30.710029-71.29114 68.599027c0 23.929893 12.76261 45.067965 32.205648 57.332035v22.434274c28.516456 0.498539 56.035833 6.181889 81.660759 16.850633v-41.578189c17.44888-12.463486 28.715871-32.504771 28.715872-55.038753z" p-id="20621"></path><path d="M669.439338 818.103213c0 79.26777 64.411295 143.679065 143.679065 143.679065h0c-79.26777 0-143.679065-64.411295-143.679065-143.679065zM813.317819 961.782278c-0.099708 0-0.099708 0 0 0-0.099708 0-0.099708 0 0 0zM813.417527 961.782278h-0.099708 0.099708zM813.517235 961.782278c-0.099708 0 0 0 0 0zM813.616943 961.782278h-0.099708 0.099708zM813.71665 961.782278zM813.916066 961.782278c-0.099708 0-0.099708 0 0 0-0.099708 0-0.099708 0 0 0zM814.015774 961.782278h-0.099708 0.099708zM814.115482 961.782278s-0.099708 0 0 0c-0.099708 0 0 0 0 0zM814.21519 961.782278h-0.099708 0.099708zM814.314898 961.782278zM814.414606 961.782278zM814.614021 961.782278h-0.099707 0.099707zM814.713729 961.782278c-0.099708 0-0.099708 0 0 0-0.099708 0-0.099708 0 0 0zM814.813437 961.782278h-0.099708 0.099708zM814.913145 961.782278s-0.099708 0 0 0c-0.099708 0 0 0 0 0zM815.112561 961.782278h-0.199416 0.199416zM815.311977 961.782278c-0.099708 0-0.099708 0 0 0-0.099708 0-0.099708 0 0 0zM815.511392 961.782278h-0.199415 0.199415zM953.806232 847.317624c-13.360857 64.511003-70.094645 113.367868-138.29484 114.464654 27.319961-0.498539 53.642843-8.574878 76.376242-23.531061l27.120545-17.847712-0.099708-0.099708 16.55151-26.821421c8.774294-14.258228 14.956183-29.912366 18.346251-46.164752zM956.69776 818.801168zM956.69776 818.701461zM956.69776 818.502045s0 0.099708 0 0c0 0.099708 0 0 0 0zM956.69776 818.402337zM956.69776 818.302629zM956.69776 818.103213v0z" p-id="20622"></path></svg>