<?xml version="1.0" standalone="no"?><!DOCTYPE svg PUBLIC "-//W3C//DTD SVG 1.1//EN" "http://www.w3.org/Graphics/SVG/1.1/DTD/svg11.dtd"><svg t="1618988238918" class="icon" viewBox="0 0 1024 1024" version="1.1" xmlns="http://www.w3.org/2000/svg" p-id="1425" xmlns:xlink="http://www.w3.org/1999/xlink" width="200" height="200"><defs><style type="text/css"></style></defs><path d="M1012.096 490.688l-148.48 148.48c-7.616 7.552-17.984 11.904-28.736 11.904s-20.992-4.288-28.736-11.904l-148.352-148.48c-15.808-15.872-15.808-41.536 0-57.408 15.872-15.872 41.472-15.872 57.472 0l78.976 79.104L794.24 512c0-196.608-159.808-356.48-356.48-356.48C241.216 155.52 81.28 315.392 81.28 512s159.936 356.48 356.48 356.48c95.232 0 184.768-37.056 252.224-104.384 15.744-15.872 41.472-15.872 57.344 0s15.808 41.472 0 57.344c-82.624 82.752-192.576 128.256-309.568 128.256C196.352 949.632 0 753.344 0 512s196.352-437.76 437.76-437.76c241.408 0 437.76 196.352 437.76 437.76l0 0.384 79.104-79.104c15.872-15.872 41.472-15.872 57.472 0C1027.968 449.216 1027.968 474.816 1012.096 490.688zM623.616 505.728l-320-192 0 384L623.616 505.728z" p-id="1426"></path></svg>