<?xml version="1.0" standalone="no"?><!DOCTYPE svg PUBLIC "-//W3C//DTD SVG 1.1//EN" "http://www.w3.org/Graphics/SVG/1.1/DTD/svg11.dtd"><svg t="1606469922060" class="icon" viewBox="0 0 1024 1024" version="1.1" xmlns="http://www.w3.org/2000/svg" p-id="14229" xmlns:xlink="http://www.w3.org/1999/xlink" width="200" height="200"><defs><style type="text/css"></style></defs><path d="M213.333333 640v170.666667h170.666667v85.333333H170.666667a42.666667 42.666667 0 0 1-42.666667-42.666667v-213.333333h85.333333z m0-256H128V170.666667a42.666667 42.666667 0 0 1 42.666667-42.666667h213.333333v85.333333H213.333333v170.666667z m597.333334 256h85.333333v213.333333a42.666667 42.666667 0 0 1-42.666667 42.666667h-213.333333v-85.333333h170.666667v-170.666667z m0-256V213.333333h-170.666667V128h213.333333a42.666667 42.666667 0 0 1 42.666667 42.666667v213.333333h-85.333333z m-298.666667 256a128 128 0 1 1 0-256 128 128 0 0 1 0 256z" p-id="14230"></path></svg>