<?xml version="1.0" standalone="no"?><!DOCTYPE svg PUBLIC "-//W3C//DTD SVG 1.1//EN" "http://www.w3.org/Graphics/SVG/1.1/DTD/svg11.dtd"><svg t="1606375251291" class="icon" viewBox="0 0 1024 1024" version="1.1" xmlns="http://www.w3.org/2000/svg" p-id="16206" xmlns:xlink="http://www.w3.org/1999/xlink" width="200" height="200"><defs><style type="text/css"></style></defs><path d="M768 870.4h-512c-10.24 0-17.066667-6.826667-17.066667-17.066667V443.733333c0-10.24 6.826667-17.066667 17.066667-17.066666h512c10.24 0 17.066667 6.826667 17.066667 17.066666v409.6c0 10.24-6.826667 17.066667-17.066667 17.066667zM273.066667 836.266667h477.866666v-375.466667H273.066667v375.466667z" fill="" p-id="16207"></path><path d="M426.666667 870.4c-10.24 0-17.066667-6.826667-17.066667-17.066667V443.733333c0-10.24 6.826667-17.066667 17.066667-17.066666s17.066667 6.826667 17.066666 17.066666v409.6c0 10.24-6.826667 17.066667-17.066666 17.066667zM597.333333 870.4c-10.24 0-17.066667-6.826667-17.066666-17.066667V443.733333c0-10.24 6.826667-17.066667 17.066666-17.066666s17.066667 6.826667 17.066667 17.066666v409.6c0 10.24-6.826667 17.066667-17.066667 17.066667z" fill="" p-id="16208"></path><path d="M768 563.2h-512c-10.24 0-17.066667-6.826667-17.066667-17.066667s6.826667-17.066667 17.066667-17.066666h512c10.24 0 17.066667 6.826667 17.066667 17.066666s-6.826667 17.066667-17.066667 17.066667zM768 665.6h-512c-10.24 0-17.066667-6.826667-17.066667-17.066667s6.826667-17.066667 17.066667-17.066666h512c10.24 0 17.066667 6.826667 17.066667 17.066666s-6.826667 17.066667-17.066667 17.066667zM768 768h-512c-10.24 0-17.066667-6.826667-17.066667-17.066667s6.826667-17.066667 17.066667-17.066666h512c10.24 0 17.066667 6.826667 17.066667 17.066666s-6.826667 17.066667-17.066667 17.066667z" fill="" p-id="16209"></path><path d="M870.4 1006.933333h-716.8c-10.24 0-17.066667-6.826667-17.066667-17.066666V307.2c0-3.413333 3.413333-10.24 3.413334-13.653333l273.066666-273.066667c3.413333-3.413333 6.826667-3.413333 13.653334-3.413333h443.733333c10.24 0 17.066667 6.826667 17.066667 17.066666v955.733334c0 10.24-6.826667 17.066667-17.066667 17.066666zM170.666667 972.8h682.666666v-921.6H433.493333L170.666667 314.026667v658.773333z" fill="" p-id="16210"></path><path d="M426.666667 324.266667h-273.066667c-10.24 0-17.066667-6.826667-17.066667-17.066667s6.826667-17.066667 17.066667-17.066667H409.6V34.133333c0-10.24 6.826667-17.066667 17.066667-17.066666s17.066667 6.826667 17.066666 17.066666v273.066667c0 10.24-6.826667 17.066667-17.066666 17.066667z" fill="" p-id="16211"></path></svg>