<?xml version="1.0" standalone="no"?><!DOCTYPE svg PUBLIC "-//W3C//DTD SVG 1.1//EN" "http://www.w3.org/Graphics/SVG/1.1/DTD/svg11.dtd"><svg t="1606376016774" class="icon" viewBox="0 0 1024 1024" version="1.1" xmlns="http://www.w3.org/2000/svg" p-id="13504" xmlns:xlink="http://www.w3.org/1999/xlink" width="200" height="200"><defs><style type="text/css"></style></defs><path d="M928 64H96c-19.2 0-32 12.8-32 32v832c0 19.2 12.8 32 32 32h832c19.2 0 32-12.8 32-32V96c0-19.2-12.8-32-32-32z m-32 832H128V128h768v768z" p-id="13505"></path><path d="M307.2 515.2l128 73.6c3.2 3.2 6.4 0 9.6-3.2l25.6-44.8c3.2-3.2 0-6.4-3.2-9.6l-105.6-60.8 131.2-57.6 25.6-140.8 96 108.8 144-16-73.6 124.8 60.8 131.2-115.2-28.8c-3.2 0-6.4 0-6.4 3.2l-12.8 51.2c0 3.2 0 6.4 3.2 6.4l144 35.2c9.6 3.2 22.4 0 32-3.2 25.6-12.8 35.2-41.6 25.6-67.2l-57.6-124.8 70.4-118.4c6.4-9.6 6.4-19.2 6.4-32-3.2-28.8-28.8-48-54.4-44.8l-140.8 19.2-92.8-105.6c-6.4-9.6-16-12.8-28.8-16-28.8-6.4-54.4 12.8-60.8 38.4l-25.6 134.4-124.8 54.4c-9.6 3.2-19.2 12.8-25.6 22.4-9.6 25.6 0 57.6 25.6 70.4zM489.6 710.4c0-73.6-32-92.8-83.2-92.8s-83.2 19.2-83.2 92.8c0 70.4 28.8 89.6 80 92.8l19.2 35.2h60.8l-32-41.6c25.6-12.8 38.4-35.2 38.4-86.4z m-83.2 51.2c-25.6 0-28.8-12.8-28.8-48 0-38.4 6.4-51.2 28.8-51.2s28.8 12.8 28.8 51.2c0 35.2-3.2 48-28.8 48zM220.8 726.4c22.4 6.4 25.6 9.6 25.6 16 0 9.6-3.2 16-25.6 16-16 0-35.2-3.2-48-6.4v44.8c12.8 3.2 32 6.4 51.2 6.4 54.4 0 73.6-19.2 73.6-57.6 0-32-6.4-44.8-51.2-57.6-22.4-6.4-25.6-6.4-25.6-16s6.4-12.8 22.4-12.8c12.8 0 35.2 3.2 44.8 6.4v-41.6c-9.6-3.2-22.4-6.4-44.8-6.4-41.6 0-70.4 12.8-70.4 54.4 0 35.2 9.6 48 48 54.4z" p-id="13506"></path><path d="M569.6 620.8h-51.2V800h118.4v-44.8h-67.2z" p-id="13507"></path></svg>