<?xml version="1.0" standalone="no"?><!DOCTYPE svg PUBLIC "-//W3C//DTD SVG 1.1//EN" "http://www.w3.org/Graphics/SVG/1.1/DTD/svg11.dtd"><svg t="1618988399805" class="icon" viewBox="0 0 1024 1024" version="1.1" xmlns="http://www.w3.org/2000/svg" p-id="2569" xmlns:xlink="http://www.w3.org/1999/xlink" width="200" height="200"><defs><style type="text/css"></style></defs><path d="M512 42.666667a469.333333 469.333333 0 1 0 469.333333 469.333333A469.333333 469.333333 0 0 0 512 42.666667z m0 864a394.666667 394.666667 0 1 1 394.666667-394.666667 395.146667 395.146667 0 0 1-394.666667 394.666667z" p-id="2570"></path><path d="M365.333333 365.333333m5.333334 0l282.666666 0q5.333333 0 5.333334 5.333334l0 282.666666q0 5.333333-5.333334 5.333334l-282.666666 0q-5.333333 0-5.333334-5.333334l0-282.666666q0-5.333333 5.333334-5.333334Z" p-id="2571"></path></svg>