<?xml version="1.0" standalone="no"?><!DOCTYPE svg PUBLIC "-//W3C//DTD SVG 1.1//EN" "http://www.w3.org/Graphics/SVG/1.1/DTD/svg11.dtd"><svg t="1611890355990" class="icon" viewBox="0 0 1024 1024" version="1.1" xmlns="http://www.w3.org/2000/svg" p-id="10811" xmlns:xlink="http://www.w3.org/1999/xlink" width="200" height="200"><defs><style type="text/css"></style></defs><path d="M398.144 896H256a96 96 0 0 1-96-96v-640A96 96 0 0 1 256 64h448a96 96 0 0 1 96 96v256a32 32 0 1 0 64 0v-256A160 160 0 0 0 704 0H256a160 160 0 0 0-160 160v640A160 160 0 0 0 256 960h142.144a32 32 0 1 0 0-64z" p-id="10812"></path><path d="M256 160m32 0l384 0q32 0 32 32l0 0q0 32-32 32l-384 0q-32 0-32-32l0 0q0-32 32-32Z" p-id="10813"></path><path d="M256 352m32 0l384 0q32 0 32 32l0 0q0 32-32 32l-384 0q-32 0-32-32l0 0q0-32 32-32Z" p-id="10814"></path><path d="M256 544m32 0l128 0q32 0 32 32l0 0q0 32-32 32l-128 0q-32 0-32-32l0 0q0-32 32-32Z" p-id="10815"></path><path d="M913.984 609.792a96 96 0 0 1 48 83.2v150.08a96 96 0 0 1-48 83.136l-129.984 75.008a96 96 0 0 1-96 0l-129.984-75.008a96 96 0 0 1-48-83.2v-150.08a96 96 0 0 1 48-83.136l129.984-75.008a96 96 0 0 1 96 0l129.984 75.008z m-193.984-19.584l-129.984 75.008a32 32 0 0 0-16 27.712v150.144a32 32 0 0 0 16 27.712l129.984 75.008a32 32 0 0 0 32 0l129.984-75.008a32 32 0 0 0 16-27.712v-150.144a32 32 0 0 0-16-27.712L752 590.208a32 32 0 0 0-32 0z" p-id="10816"></path></svg>