<?xml version="1.0" standalone="no"?><!DOCTYPE svg PUBLIC "-//W3C//DTD SVG 1.1//EN" "http://www.w3.org/Graphics/SVG/1.1/DTD/svg11.dtd"><svg t="1611890339314" class="icon" viewBox="0 0 1049 1024" version="1.1" xmlns="http://www.w3.org/2000/svg" p-id="10081" xmlns:xlink="http://www.w3.org/1999/xlink" width="204.8828125" height="200"><defs><style type="text/css"></style></defs><path d="M63.0272 951.04V72.96c0-4.864 3.9168-8.8064 8.704-8.8064h726.912c4.8128 0 8.704 3.9424 8.704 8.832V427.264H870.4V72.9344C870.4 32.8192 838.2464 0 798.6432 0H71.808C32.128 0 0 32.6656 0 72.96v878.08C0 991.1552 32.2048 1024 71.7568 1024H478.72v-64.1536H71.7568a8.7552 8.7552 0 0 1-8.6784-8.832h-0.0512z" p-id="10082"></path><path d="M234.7008 614.4C218.1888 614.4 204.8 625.8688 204.8 640s13.3888 25.6 29.9008 25.6h119.3984c16.512 0 29.9008-11.4688 29.9008-25.6s-13.3888-25.6-29.9008-25.6H234.7008zM614.4 435.2c0-14.1312-14.4384-25.6-32.2304-25.6H211.4304C193.6384 409.6 179.2 421.0688 179.2 435.2s14.4384 25.6 32.2304 25.6h370.7392c17.792 0 32.2304-11.4688 32.2304-25.6zM582.144 230.4H211.456C193.6128 230.4 179.2 241.8688 179.2 256s14.4128 25.6 32.2304 25.6h370.7392c17.792 0 32.2304-11.4688 32.2304-25.6s-14.4128-25.6-32.2304-25.6zM890.8288 727.9104h-61.312v-106.2656c0-18.1504-13.7728-32.8448-30.7712-32.8448-16.9728 0-30.7456 14.6944-30.7456 32.8448v139.1104c0 18.1248 13.7728 32.8448 30.7456 32.8448h92.0832c16.9984 0 30.7712-14.6944 30.7712-32.8448 0-18.1248-13.7728-32.8448-30.7456-32.8448z" p-id="10083"></path><path d="M793.6 486.4c141.3888 0 256 114.6112 256 256 0 141.3632-114.6112 256-256 256s-256-114.6368-256-256c0-141.3888 114.6368-256 256-256z m0 446.9248A191.1296 191.1296 0 0 0 984.576 742.4 191.1296 191.1296 0 0 0 793.6 551.4752 191.1296 191.1296 0 0 0 602.6752 742.4a191.1296 191.1296 0 0 0 190.9504 190.9248z" p-id="10084"></path></svg>