<svg width="16" height="16" viewBox="0 0 16 16" fill="none" xmlns="http://www.w3.org/2000/svg">
<path fill-rule="evenodd" clip-rule="evenodd" d="M4.5 0C3.67157 0 3 0.671573 3 1.5V3H1.5C0.671573 3 0 3.67157 0 4.5V11.5C0 12.3284 0.671573 13 1.5 13H3V14.5C3 15.3284 3.67157 16 4.5 16H14.5C15.3284 16 16 15.3284 16 14.5V1.5C16 0.671573 15.3284 0 14.5 0H4.5ZM4 13V14.5C4 14.7761 4.22386 15 4.5 15H14.5C14.7761 15 15 14.7761 15 14.5V1.5C15 1.22386 14.7761 1 14.5 1H4.5C4.22386 1 4 1.22386 4 1.5V3H8.5C9.32843 3 10 3.67157 10 4.5V5H12.5C12.7761 5 13 5.22386 13 5.5C13 5.77614 12.7761 6 12.5 6H10V7.5H12.5C12.7761 7.5 13 7.72386 13 8C13 8.27614 12.7761 8.5 12.5 8.5H10V10H12.5C12.7761 10 13 10.2239 13 10.5C13 10.7761 12.7761 11 12.5 11H10V11.5C10 12.3284 9.32843 13 8.5 13H4ZM8.5 4H1.5C1.22386 4 1 4.22386 1 4.5V11.5C1 11.7761 1.22386 12 1.5 12H3H4H8.5C8.77614 12 9 11.7761 9 11.5V10.5V8V5.5V4.5C9 4.22386 8.77614 4 8.5 4ZM3.2 5.6C3.42091 5.43431 3.73431 5.47909 3.9 5.7L5 7.16667L6.1 5.7C6.26569 5.47909 6.57909 5.43431 6.8 5.6C7.02091 5.76569 7.06569 6.07909 6.9 6.3L5.625 8L6.9 9.7C7.06569 9.92091 7.02091 10.2343 6.8 10.4C6.57909 10.5657 6.26569 10.5209 6.1 10.3L5 8.83333L3.9 10.3C3.73431 10.5209 3.42091 10.5657 3.2 10.4C2.97909 10.2343 2.93431 9.92091 3.1 9.7L4.375 8L3.1 6.3C2.93431 6.07909 2.97909 5.76569 3.2 5.6Z" fill="#FFBE3D"/>
</svg>
