<svg xmlns="http://www.w3.org/2000/svg" width="16" height="16" fill="none" viewBox="0 0 16 16">
    <path fill="#526079" d="M13 1H4.625c-.069 0-.125.056-.125.125V2c0 .069.056.125.125.125h7.75v10.75c0 .069.056.125.125.125h.875c.069 0 .125-.056.125-.125V1.5c0-.277-.223-.5-.5-.5zm-2 2H3c-.277 0-.5.223-.5.5v8.292c0 .133.053.26.147.353l2.708 2.708c.034.034.073.063.115.086v.03h.066c.055.02.112.031.172.031H11c.277 0 .5-.223.5-.5v-11c0-.277-.223-.5-.5-.5zM5.469 13.378l-1.346-1.347H5.47v1.347zm4.906.497H6.469v-2.219c0-.345-.28-.625-.625-.625H3.625V4.125h6.75v9.75z"/>
</svg>
