<svg width="63" height="26" viewBox="0 0 63 26" fill="none" xmlns="http://www.w3.org/2000/svg">
<path fill-rule="evenodd" clip-rule="evenodd" d="M36.9608 26C39.0595 26 40.641 25.424 41.7053 24.272C42.7097 23.1498 43.2119 21.5564 43.2119 19.4917V9.66187H41.8402V19.4917C41.8402 21.1973 41.4655 22.4915 40.7159 23.3743C39.9064 24.3019 38.6547 24.7657 36.9608 24.7657C35.2668 24.7657 34.0151 24.3019 33.2056 23.3743C32.456 22.5214 32.0813 21.2273 32.0813 19.4917V9.66187H30.7096V19.4917C30.7096 21.5863 31.2193 23.1872 32.2387 24.2944C33.288 25.4315 34.8621 26 36.9608 26ZM14.8162 25.7365V20.0856L17.7475 17.4065L25.3278 25.7365H27.2515L18.7094 16.5285L26.221 9.66187H24.3431L14.8162 18.4872V9.66187H13.4192V25.7365H14.8162ZM60.7222 11.6881V25.7365H62.0983V9.66187H60.5418L50.7963 23.5977H50.7287V9.66187H49.33V25.7365H50.864L60.6545 11.6881H60.7222Z" fill="#121927"/>
<path fill-rule="evenodd" clip-rule="evenodd" d="M22.3892 2.86339C21.3241 4.87762 18.4076 8.14669 18.2711 8.239C18.2711 8.239 20.0434 7.35852 20.8974 6.74414C21.4127 6.37342 22.3788 5.2837 22.3788 5.2837C23.5125 3.80113 23.8892 1.97113 23.4218 0C22.5749 1.77866 20.935 2.11771 19.1129 2.13833C18.1209 2.1495 17.1244 2.10095 16.1379 2.17105C14.3904 2.29555 12.6533 2.4976 11.8049 4.31191C11.1793 2.85807 9.87283 2.38986 8.38469 2.27294C7.0055 2.1644 5.61469 2.17278 4.2288 2.13101C2.55656 2.08073 1.09208 1.69287 0.289151 0.212955C0.270696 0.178903 0.170088 0.1805 0.0903154 0.161213C-0.0552392 1.40516 -0.0698244 2.61026 0.391396 3.79142C1.13063 5.68408 2.69884 6.89995 4.55637 7.86763C6.92051 9.0992 9.43185 10.1533 10.9696 12.3457C10.7462 10.6185 9.80318 9.26919 8.33156 8.239C7.30152 7.51807 6.18604 6.89131 5.0856 6.2543C3.53198 5.35487 2.09013 4.36644 1.31592 2.93987C2.19758 3.17105 3.11347 3.51755 4.06449 3.63314C5.21032 3.7724 6.38592 3.71893 7.54887 3.74168C7.96976 3.74992 8.39154 3.74354 8.81272 3.7329C10.1598 3.69898 11.2187 4.12835 11.8009 5.40461C12.4288 4.16719 13.4048 3.72399 14.6867 3.73941C15.108 3.7446 15.5294 3.73941 15.9507 3.74208C18.1321 3.75551 20.3486 3.97192 22.3892 2.86339Z" fill="#49A9DE"/>
</svg>
